mtllib ParabolicScreen.mtl
g Surface 1
usemtl 0.615686_0.811765_0.929412_0.000000_0.000000
o mesh0
v -0.0067649 -0.00224043 0 
v -0.0067649 -0.00224043 0.008 
v -0.0074732 -0.00351 0.008 
v -0.0062023 -0.00132203 0 
v -0.0074732 -0.00351 0 
v -0.0062023 -0.00132203 0.008 
v -0.00570254 -0.000573053 0 
v -0.00570254 -0.000573053 0.008 
v -0.00525481 4.45557e-05 0 
v -0.00525481 4.45557e-05 0.008 
v -0.00485032 0.000559104 0 
v -0.00485032 0.000559104 0.008 
v -0.00448214 0.000991668 0 
v -0.00448214 0.000991668 0.008 
v -0.00414465 0.00135818 0 
v -0.00414465 0.00135818 0.008 
v -0.00383331 0.00167087 0 
v -0.00383331 0.00167087 0.008 
v -0.00352305 0.0019582 0 
v -0.00352305 0.0019582 0.008 
v -0.00325483 0.00218706 0 
v -0.00325483 0.00218706 0.008 
v -0.0030031 0.00238538 0 
v -0.0030031 0.00238538 0.008 
v -0.00276572 0.00255776 0 
v -0.00276572 0.00255776 0.008 
v -0.00254085 0.00270799 0 
v -0.00254085 0.00270799 0.008 
v -0.0023269 0.0028391 0 
v -0.0023269 0.0028391 0.008 
v -0.00210045 0.00296531 0 
v -0.00210045 0.00296531 0.008 
v -0.00188467 0.00307356 0 
v -0.00188467 0.00307356 0.008 
v -0.00167859 0.003166 0 
v -0.00167859 0.003166 0.008 
v -0.00148082 0.00324466 0 
v -0.00148082 0.00324466 0.008 
v -0.00129013 0.00331118 0 
v -0.00129013 0.00331118 0.008 
v -0.00110544 0.00336688 0 
v -0.00110544 0.00336688 0.008 
v -0.000925814 0.00341281 0 
v -0.000925814 0.00341281 0.008 
v -0.000750395 0.00344983 0 
v -0.000750395 0.00344983 0.008 
v -0.000578409 0.0034786 0 
v -0.000578409 0.0034786 0.008 
v -0.000409147 0.00349964 0 
v -0.000409147 0.00349964 0.008 
v -0.000241947 0.00351335 0 
v -0.000241947 0.00351335 0.008 
v -7.61855e-05 0.00351998 0 
v -7.61855e-05 0.00351998 0.008 
v 7.61855e-05 0.00351998 0 
v 7.61855e-05 0.00351998 0.008 
v 0.00024083 0.00351341 0 
v 0.00024083 0.00351341 0.008 
v 0.000405746 0.00349999 0 
v 0.000405746 0.00349999 0.008 
v 0.00057149 0.0034796 0 
v 0.00057149 0.0034796 0.008 
v 0.000738634 0.00345203 0 
v 0.000738634 0.00345203 0.008 
v 0.000907764 0.00341698 0 
v 0.000907764 0.00341698 0.008 
v 0.00107949 0.00337402 0 
v 0.00107949 0.00337402 0.008 
v 0.00125444 0.00332261 0 
v 0.00125444 0.00332261 0.008 
v 0.0014333 0.0032621 0 
v 0.0014333 0.0032621 0.008 
v 0.00161679 0.00319164 0 
v 0.00161679 0.00319164 0.008 
v 0.0018057 0.00311025 0 
v 0.0018057 0.00311025 0.008 
v 0.0020009 0.00301671 0 
v 0.0020009 0.00301671 0.008 
v 0.00220335 0.00290956 0 
v 0.00220335 0.00290956 0.008 
v 0.00241409 0.00278706 0 
v 0.00241409 0.00278706 0.008 
v 0.00263435 0.00264708 0 
v 0.00263435 0.00264708 0.008 
v 0.00286546 0.00248706 0 
v 0.00286546 0.00248706 0.008 
v 0.00310899 0.0023039 0 
v 0.00310899 0.0023039 0.008 
v 0.00336672 0.0020938 0 
v 0.00336672 0.0020938 0.008 
v 0.00364071 0.00185209 0 
v 0.00364071 0.00185209 0.008 
v 0.00395097 0.00155557 0 
v 0.00395097 0.00155557 0.008 
v 0.0042659 0.00122981 0 
v 0.0042659 0.00122981 0.008 
v 0.00460658 0.000849291 0 
v 0.00460658 0.000849291 0.008 
v 0.00497646 0.000403071 0 
v 0.00497646 0.000403071 0.008 
v 0.00538051 -0.00012374 0 
v 0.00538051 -0.00012374 0.008 
v 0.00582476 -0.000750417 0 
v 0.00582476 -0.000750417 0.008 
v 0.00631667 -0.00150228 0 
v 0.00631667 -0.00150228 0.008 
v 0.00686551 -0.00241307 0 
v 0.00686551 -0.00241307 0.008 
v 0.0074732 -0.00351 0 
v 0.0074732 -0.00351 0.008 
vn 0.862356 -0.506302 6.12323e-17 
vn 0.862356 -0.506302 6.12323e-17 
vn 0.883036 -0.469305 6.12323e-17 
vn 0.84213 -0.539275 6.12323e-17 
vn 0.883036 -0.469305 6.12323e-17 
vn 0.84213 -0.539275 6.12323e-17 
vn 0.820583 -0.571528 6.12323e-17 
vn 0.820583 -0.571528 6.12323e-17 
vn 0.79776 -0.602975 6.12323e-17 
vn 0.79776 -0.602975 6.12323e-17 
vn 0.773698 -0.633555 6.12323e-17 
vn 0.773698 -0.633555 6.12323e-17 
vn 0.748433 -0.66321 6.12323e-17 
vn 0.748433 -0.66321 6.12323e-17 
vn 0.722005 -0.691888 6.12323e-17 
vn 0.722005 -0.691888 6.12323e-17 
vn 0.694454 -0.719537 6.12323e-17 
vn 0.694454 -0.719537 6.12323e-17 
vn 0.663584 -0.748101 6.12323e-17 
vn 0.663584 -0.748101 6.12323e-17 
vn 0.633845 -0.77346 6.12323e-17 
vn 0.633845 -0.77346 6.12323e-17 
vn 0.603116 -0.797654 6.12323e-17 
vn 0.603116 -0.797654 6.12323e-17 
vn 0.571448 -0.820638 6.12323e-17 
vn 0.571448 -0.820638 6.12323e-17 
vn 0.538892 -0.842375 6.12323e-17 
vn 0.538892 -0.842375 6.12323e-17 
vn 0.505496 -0.862829 6.12323e-17 
vn 0.505496 -0.862829 6.12323e-17 
vn 0.467497 -0.883995 6.12323e-17 
vn 0.467497 -0.883995 6.12323e-17 
vn 0.428701 -0.903446 6.12323e-17 
vn 0.428701 -0.903446 6.12323e-17 
vn 0.389292 -0.921114 6.12323e-17 
vn 0.389292 -0.921114 6.12323e-17 
vn 0.349345 -0.936994 6.12323e-17 
vn 0.349345 -0.936994 6.12323e-17 
vn 0.308935 -0.951083 6.12323e-17 
vn 0.308935 -0.951083 6.12323e-17 
vn 0.268133 -0.963382 6.12323e-17 
vn 0.268133 -0.963382 6.12323e-17 
vn 0.227013 -0.973892 6.12323e-17 
vn 0.227013 -0.973892 6.12323e-17 
vn 0.185648 -0.982616 6.12323e-17 
vn 0.185648 -0.982616 6.12323e-17 
vn 0.14411 -0.989562 6.12323e-17 
vn 0.14411 -0.989562 6.12323e-17 
vn 0.102472 -0.994736 6.12323e-17 
vn 0.102472 -0.994736 6.12323e-17 
vn 0.060804 -0.99815 6.12323e-17 
vn 0.060804 -0.99815 6.12323e-17 
vn 0.0191782 -0.999816 6.12323e-17 
vn 0.0191782 -0.999816 6.12323e-17 
vn -0.0191782 -0.999816 6.12323e-17 
vn -0.0191782 -0.999816 6.12323e-17 
vn -0.0605243 -0.998167 6.12323e-17 
vn -0.0605243 -0.998167 6.12323e-17 
vn -0.101629 -0.994822 6.12323e-17 
vn -0.101629 -0.994822 6.12323e-17 
vn -0.142421 -0.989806 6.12323e-17 
vn -0.142421 -0.989806 6.12323e-17 
vn -0.182836 -0.983143 6.12323e-17 
vn -0.182836 -0.983143 6.12323e-17 
vn -0.222809 -0.974862 6.12323e-17 
vn -0.222809 -0.974862 6.12323e-17 
vn -0.262275 -0.964993 6.12323e-17 
vn -0.262275 -0.964993 6.12323e-17 
vn -0.301174 -0.953569 6.12323e-17 
vn -0.301174 -0.953569 6.12323e-17 
vn -0.339445 -0.940626 6.12323e-17 
vn -0.339445 -0.940626 6.12323e-17 
vn -0.377029 -0.926201 6.12323e-17 
vn -0.377029 -0.926201 6.12323e-17 
vn -0.413871 -0.910336 6.12323e-17 
vn -0.413871 -0.910336 6.12323e-17 
vn -0.449914 -0.893072 6.12323e-17 
vn -0.449914 -0.893072 6.12323e-17 
vn -0.485106 -0.874455 6.12323e-17 
vn -0.485106 -0.874455 6.12323e-17 
vn -0.519397 -0.854533 6.12323e-17 
vn -0.519397 -0.854533 6.12323e-17 
vn -0.552738 -0.833355 6.12323e-17 
vn -0.552738 -0.833355 6.12323e-17 
vn -0.585083 -0.810974 6.12323e-17 
vn -0.585083 -0.810974 6.12323e-17 
vn -0.616388 -0.787442 6.12323e-17 
vn -0.616388 -0.787442 6.12323e-17 
vn -0.646613 -0.762819 6.12323e-17 
vn -0.646613 -0.762819 6.12323e-17 
vn -0.675717 -0.737161 6.12323e-17 
vn -0.675717 -0.737161 6.12323e-17 
vn -0.705249 -0.70896 6.12323e-17 
vn -0.705249 -0.70896 6.12323e-17 
vn -0.731888 -0.681425 6.12323e-17 
vn -0.731888 -0.681425 6.12323e-17 
vn -0.757363 -0.652994 6.12323e-17 
vn -0.757363 -0.652994 6.12323e-17 
vn -0.781588 -0.623795 6.12323e-17 
vn -0.781588 -0.623795 6.12323e-17 
vn -0.804543 -0.593895 6.12323e-17 
vn -0.804543 -0.593895 6.12323e-17 
vn -0.826205 -0.563369 6.12323e-17 
vn -0.826205 -0.563369 6.12323e-17 
vn -0.846559 -0.532295 6.12323e-17 
vn -0.846559 -0.532295 6.12323e-17 
vn -0.86559 -0.500753 6.12323e-17 
vn -0.86559 -0.500753 6.12323e-17 
vn -0.883036 -0.469305 6.12323e-17 
vn -0.883036 -0.469305 6.12323e-17 
f 1//1 2//2 3//3 
f 2//2 1//1 4//4 
f 3//3 5//5 1//1 
f 4//4 6//6 2//2 
f 6//6 4//4 7//7 
f 7//7 8//8 6//6 
f 8//8 7//7 9//9 
f 9//9 10//10 8//8 
f 10//10 9//9 11//11 
f 11//11 12//12 10//10 
f 12//12 11//11 13//13 
f 13//13 14//14 12//12 
f 14//14 13//13 15//15 
f 15//15 16//16 14//14 
f 16//16 15//15 17//17 
f 17//17 18//18 16//16 
f 18//18 17//17 19//19 
f 19//19 20//20 18//18 
f 20//20 19//19 21//21 
f 21//21 22//22 20//20 
f 22//22 21//21 23//23 
f 23//23 24//24 22//22 
f 24//24 23//23 25//25 
f 25//25 26//26 24//24 
f 26//26 25//25 27//27 
f 27//27 28//28 26//26 
f 28//28 27//27 29//29 
f 29//29 30//30 28//28 
f 30//30 29//29 31//31 
f 31//31 32//32 30//30 
f 32//32 31//31 33//33 
f 33//33 34//34 32//32 
f 34//34 33//33 35//35 
f 35//35 36//36 34//34 
f 36//36 35//35 37//37 
f 37//37 38//38 36//36 
f 38//38 37//37 39//39 
f 39//39 40//40 38//38 
f 40//40 39//39 41//41 
f 41//41 42//42 40//40 
f 42//42 41//41 43//43 
f 43//43 44//44 42//42 
f 44//44 43//43 45//45 
f 45//45 46//46 44//44 
f 46//46 45//45 47//47 
f 47//47 48//48 46//46 
f 48//48 47//47 49//49 
f 49//49 50//50 48//48 
f 50//50 49//49 51//51 
f 51//51 52//52 50//50 
f 52//52 51//51 53//53 
f 53//53 54//54 52//52 
f 54//54 53//53 55//55 
f 55//55 56//56 54//54 
f 56//56 55//55 57//57 
f 57//57 58//58 56//56 
f 58//58 57//57 59//59 
f 59//59 60//60 58//58 
f 60//60 59//59 61//61 
f 61//61 62//62 60//60 
f 62//62 61//61 63//63 
f 63//63 64//64 62//62 
f 64//64 63//63 65//65 
f 65//65 66//66 64//64 
f 66//66 65//65 67//67 
f 67//67 68//68 66//66 
f 68//68 67//67 69//69 
f 69//69 70//70 68//68 
f 70//70 69//69 71//71 
f 71//71 72//72 70//70 
f 72//72 71//71 73//73 
f 73//73 74//74 72//72 
f 74//74 73//73 75//75 
f 75//75 76//76 74//74 
f 76//76 75//75 77//77 
f 77//77 78//78 76//76 
f 78//78 77//77 79//79 
f 79//79 80//80 78//78 
f 80//80 79//79 81//81 
f 81//81 82//82 80//80 
f 82//82 81//81 83//83 
f 83//83 84//84 82//82 
f 84//84 83//83 85//85 
f 85//85 86//86 84//84 
f 86//86 85//85 87//87 
f 87//87 88//88 86//86 
f 88//88 87//87 89//89 
f 89//89 90//90 88//88 
f 90//90 89//89 91//91 
f 91//91 92//92 90//90 
f 92//92 91//91 93//93 
f 93//93 94//94 92//92 
f 94//94 93//93 95//95 
f 95//95 96//96 94//94 
f 96//96 95//95 97//97 
f 97//97 98//98 96//96 
f 98//98 97//97 99//99 
f 99//99 100//100 98//98 
f 100//100 99//99 101//101 
f 101//101 102//102 100//100 
f 102//102 101//101 103//103 
f 103//103 104//104 102//102 
f 104//104 103//103 105//105 
f 105//105 106//106 104//104 
f 106//106 105//105 107//107 
f 107//107 108//108 106//106 
f 108//108 107//107 109//109 
f 109//109 110//110 108//108 
