# Blender v2.79 (sub 0) OBJ File: 'parabolic.blend'
# www.blender.org
mtllib parabolic.mtl
o mesh0
v -0.682576 -0.412313 -0.396000
v -0.682576 -0.412313 0.404000
v -0.753406 -0.539270 0.404000
v -0.626316 -0.320473 -0.396000
v -0.753406 -0.539270 -0.396000
v -0.626316 -0.320473 0.404000
v -0.576340 -0.245575 -0.396000
v -0.576340 -0.245575 0.404000
v -0.531567 -0.183814 -0.396000
v -0.531567 -0.183814 0.404000
v -0.491118 -0.132359 -0.396000
v -0.491118 -0.132359 0.404000
v -0.454300 -0.089103 -0.396000
v -0.454300 -0.089103 0.404000
v -0.420551 -0.052452 -0.396000
v -0.420551 -0.052452 0.404000
v -0.389416 -0.021183 -0.396000
v -0.389416 -0.021183 0.404000
v -0.358391 0.007550 -0.396000
v -0.358391 0.007550 0.404000
v -0.331569 0.030436 -0.396000
v -0.331569 0.030436 0.404000
v -0.306396 0.050268 -0.396000
v -0.306396 0.050268 0.404000
v -0.282658 0.067506 -0.396000
v -0.282658 0.067506 0.404000
v -0.260171 0.082529 -0.396000
v -0.260171 0.082529 0.404000
v -0.238776 0.095640 -0.396000
v -0.238776 0.095640 0.404000
v -0.216131 0.108261 -0.396000
v -0.216131 0.108261 0.404000
v -0.194553 0.119086 -0.396000
v -0.194553 0.119086 0.404000
v -0.173945 0.128330 -0.396000
v -0.173945 0.128330 0.404000
v -0.154168 0.136196 -0.396000
v -0.154168 0.136196 0.404000
v -0.135099 0.142848 -0.396000
v -0.135099 0.142848 0.404000
v -0.116630 0.148418 -0.396000
v -0.116630 0.148418 0.404000
v -0.098667 0.153011 -0.396000
v -0.098667 0.153011 0.404000
v -0.081125 0.156713 -0.396000
v -0.081125 0.156713 0.404000
v -0.063926 0.159590 -0.396000
v -0.063926 0.159590 0.404000
v -0.047000 0.161694 -0.396000
v -0.047000 0.161694 0.404000
v -0.030280 0.163065 -0.396000
v -0.030280 0.163065 0.404000
v -0.013704 0.163728 -0.396000
v -0.013704 0.163728 0.404000
v 0.001533 0.163728 -0.396000
v 0.001533 0.163728 0.404000
v 0.017997 0.163071 -0.396000
v 0.017997 0.163071 0.404000
v 0.034489 0.161729 -0.396000
v 0.034489 0.161729 0.404000
v 0.051063 0.159690 -0.396000
v 0.051063 0.159690 0.404000
v 0.067778 0.156933 -0.396000
v 0.067778 0.156933 0.404000
v 0.084691 0.153428 -0.396000
v 0.084691 0.153428 0.404000
v 0.101863 0.149132 -0.396000
v 0.101863 0.149132 0.404000
v 0.119358 0.143991 -0.396000
v 0.119358 0.143991 0.404000
v 0.137244 0.137940 -0.396000
v 0.137244 0.137940 0.404000
v 0.155593 0.130894 -0.396000
v 0.155593 0.130894 0.404000
v 0.174484 0.122755 -0.396000
v 0.174484 0.122755 0.404000
v 0.194004 0.113401 -0.396000
v 0.194004 0.113401 0.404000
v 0.214249 0.102686 -0.396000
v 0.214249 0.102686 0.404000
v 0.235323 0.090436 -0.396000
v 0.235323 0.090436 0.404000
v 0.257349 0.076438 -0.396000
v 0.257349 0.076438 0.404000
v 0.280460 0.060436 -0.396000
v 0.280460 0.060436 0.404000
v 0.304813 0.042120 -0.396000
v 0.304813 0.042120 0.404000
v 0.330586 0.021110 -0.396000
v 0.330586 0.021110 0.404000
v 0.357985 -0.003061 -0.396000
v 0.357985 -0.003061 0.404000
v 0.389011 -0.032713 -0.396000
v 0.389011 -0.032713 0.404000
v 0.420504 -0.065289 -0.396000
v 0.420504 -0.065289 0.404000
v 0.454572 -0.103341 -0.396000
v 0.454572 -0.103341 0.404000
v 0.491560 -0.147963 -0.396000
v 0.491560 -0.147963 0.404000
v 0.531965 -0.200644 -0.396000
v 0.531965 -0.200644 0.404000
v 0.576390 -0.263311 -0.396000
v 0.576390 -0.263311 0.404000
v 0.625581 -0.338498 -0.396000
v 0.625581 -0.338498 0.404000
v 0.680465 -0.429577 -0.396000
v 0.680465 -0.429577 0.404000
v 0.741234 -0.539270 -0.396000
v 0.741234 -0.539270 0.404000
vt 0.067857 0.000061
vt 0.067857 0.998134
vt 0.000061 0.998134
vt 0.118083 0.000061
vt 0.000061 0.000061
vt 0.118083 0.998134
vt 0.160072 0.000061
vt 0.160073 0.998134
vt 0.195646 0.000061
vt 0.195646 0.998134
vt 0.226168 0.000061
vt 0.226168 0.998134
vt 0.252659 0.000061
vt 0.252659 0.998134
vt 0.275892 0.000061
vt 0.275892 0.998134
vt 0.296470 0.000061
vt 0.296470 0.998134
vt 0.316190 0.000061
vt 0.316190 0.998134
vt 0.332633 0.000061
vt 0.332633 0.998134
vt 0.347578 0.000061
vt 0.347578 0.998134
vt 0.361258 0.000061
vt 0.361258 0.998134
vt 0.373870 0.000061
vt 0.373870 0.998134
vt 0.385572 0.000061
vt 0.385572 0.998134
vt 0.397662 0.000061
vt 0.397662 0.998134
vt 0.408920 0.000061
vt 0.408920 0.998134
vt 0.419453 0.000061
vt 0.419453 0.998134
vt 0.429379 0.000061
vt 0.429379 0.998134
vt 0.438797 0.000061
vt 0.438797 0.998134
vt 0.447792 0.000061
vt 0.447792 0.998134
vt 0.456439 0.000061
vt 0.456439 0.998134
vt 0.464799 0.000061
vt 0.464799 0.998134
vt 0.472931 0.000061
vt 0.472931 0.998134
vt 0.480884 0.000061
vt 0.480884 0.998134
vt 0.488708 0.000061
vt 0.488708 0.998134
vt 0.496443 0.000061
vt 0.496443 0.998134
vt 0.503548 0.000061
vt 0.503548 0.998134
vt 0.511232 0.000061
vt 0.511232 0.998134
vt 0.518948 0.000061
vt 0.518948 0.998134
vt 0.526736 0.000061
vt 0.526736 0.998134
vt 0.534636 0.000061
vt 0.534636 0.998134
vt 0.542691 0.000061
vt 0.542691 0.998134
vt 0.550946 0.000061
vt 0.550946 0.998134
vt 0.559450 0.000061
vt 0.559450 0.998134
vt 0.568256 0.000061
vt 0.568256 0.998134
vt 0.577423 0.000061
vt 0.577423 0.998134
vt 0.587016 0.000061
vt 0.587016 0.998134
vt 0.597110 0.000061
vt 0.597110 0.998134
vt 0.607793 0.000061
vt 0.607793 0.998134
vt 0.619161 0.000061
vt 0.619160 0.998134
vt 0.631331 0.000061
vt 0.631331 0.998134
vt 0.644440 0.000061
vt 0.644439 0.998134
vt 0.658650 0.000061
vt 0.658650 0.998134
vt 0.674156 0.000061
vt 0.674156 0.998134
vt 0.691196 0.000061
vt 0.691196 0.998134
vt 0.711210 0.000061
vt 0.711210 0.998134
vt 0.732340 0.000061
vt 0.732340 0.998134
vt 0.756158 0.000061
vt 0.756158 0.998134
vt 0.783186 0.000061
vt 0.783186 0.998134
vt 0.814148 0.000061
vt 0.814148 0.998134
vt 0.849970 0.000061
vt 0.849970 0.998134
vt 0.891870 0.000061
vt 0.891870 0.998134
vt 0.941459 0.000061
vt 0.941459 0.998134
vt 0.999939 0.000061
vt 0.999939 0.998134
vn 0.8624 -0.5063 -0.0000
vn 0.8830 -0.4693 -0.0000
vn 0.8424 -0.5388 -0.0000
vn 0.8207 -0.5714 -0.0000
vn 0.8209 -0.5711 -0.0000
vn 0.7981 -0.6026 -0.0000
vn 0.7737 -0.6336 -0.0000
vn 0.7487 -0.6629 -0.0000
vn 0.7223 -0.6916 -0.0000
vn 0.6942 -0.7198 -0.0000
vn 0.6636 -0.7481 -0.0000
vn 0.6341 -0.7733 -0.0000
vn 0.6337 -0.7736 -0.0000
vn 0.6031 -0.7977 -0.0000
vn 0.5717 -0.8205 -0.0000
vn 0.5713 -0.8208 -0.0000
vn 0.5391 -0.8422 -0.0000
vn 0.5388 -0.8424 -0.0000
vn 0.5055 -0.8628 -0.0000
vn 0.4677 -0.8839 -0.0000
vn 0.4289 -0.9033 -0.0000
vn 0.3895 -0.9210 -0.0000
vn 0.3496 -0.9369 -0.0000
vn 0.3091 -0.9510 -0.0000
vn 0.2680 -0.9634 0.0000
vn 0.2683 -0.9633 -0.0000
vn 0.2272 -0.9739 -0.0000
vn 0.2267 -0.9740 -0.0000
vn 0.1858 -0.9826 -0.0000
vn 0.1442 -0.9895 -0.0000
vn 0.1026 -0.9947 -0.0000
vn 0.0609 -0.9981 -0.0000
vn 0.0192 -0.9998 0.0000
vn -0.0193 -0.9998 -0.0000
vn -0.0605 -0.9982 -0.0000
vn -0.1016 -0.9948 -0.0000
vn -0.1425 -0.9898 -0.0000
vn -0.1829 -0.9831 -0.0000
vn -0.2229 -0.9749 -0.0000
vn -0.2624 -0.9650 -0.0000
vn -0.3013 -0.9535 -0.0000
vn -0.3395 -0.9406 -0.0000
vn -0.3772 -0.9262 -0.0000
vn -0.4140 -0.9103 -0.0000
vn -0.4501 -0.8930 -0.0000
vn -0.4853 -0.8744 -0.0000
vn -0.5196 -0.8544 -0.0000
vn -0.5529 -0.8332 -0.0000
vn -0.5853 -0.8108 -0.0000
vn -0.5849 -0.8111 0.0000
vn -0.6163 -0.7875 -0.0000
vn -0.6468 -0.7626 -0.0000
vn -0.6756 -0.7372 -0.0000
vn -0.7051 -0.7091 -0.0000
vn -0.7054 -0.7088 -0.0000
vn -0.7318 -0.6815 -0.0000
vn -0.7321 -0.6812 -0.0000
vn -0.7576 -0.6527 -0.0000
vn -0.7574 -0.6530 0.0000
vn -0.7815 -0.6239 -0.0000
vn -0.7814 -0.6240 0.0000
vn -0.8045 -0.5939 -0.0000
vn -0.8048 -0.5936 -0.0000
vn -0.8262 -0.5634 -0.0000
vn -0.8265 -0.5630 -0.0000
vn -0.8466 -0.5322 -0.0000
vn -0.8468 -0.5319 -0.0000
vn -0.8658 -0.5004 -0.0000
vn -0.8830 -0.4693 -0.0000
usemtl 0.615686_0.811765_0.929412_0.000000_0.000000
s 1
f 1/1/1 2/2/1 3/3/2
f 2/2/1 1/1/1 4/4/3
f 3/3/2 5/5/2 1/1/1
f 4/4/3 6/6/3 2/2/1
f 6/6/3 4/4/3 7/7/4
f 7/7/4 8/8/5 6/6/3
f 8/8/5 7/7/4 9/9/6
f 9/9/6 10/10/6 8/8/5
f 10/10/6 9/9/6 11/11/7
f 11/11/7 12/12/7 10/10/6
f 12/12/7 11/11/7 13/13/8
f 13/13/8 14/14/8 12/12/7
f 14/14/8 13/13/8 15/15/9
f 15/15/9 16/16/9 14/14/8
f 16/16/9 15/15/9 17/17/10
f 17/17/10 18/18/10 16/16/9
f 18/18/10 17/17/10 19/19/11
f 19/19/11 20/20/11 18/18/10
f 20/20/11 19/19/11 21/21/12
f 21/21/12 22/22/13 20/20/11
f 22/22/13 21/21/12 23/23/14
f 23/23/14 24/24/14 22/22/13
f 24/24/14 23/23/14 25/25/15
f 25/25/15 26/26/16 24/24/14
f 26/26/16 25/25/15 27/27/17
f 27/27/17 28/28/18 26/26/16
f 28/28/18 27/27/17 29/29/19
f 29/29/19 30/30/19 28/28/18
f 30/30/19 29/29/19 31/31/20
f 31/31/20 32/32/20 30/30/19
f 32/32/20 31/31/20 33/33/21
f 33/33/21 34/34/21 32/32/20
f 34/34/21 33/33/21 35/35/22
f 35/35/22 36/36/22 34/34/21
f 36/36/22 35/35/22 37/37/23
f 37/37/23 38/38/23 36/36/22
f 38/38/23 37/37/23 39/39/24
f 39/39/24 40/40/24 38/38/23
f 40/40/24 39/39/24 41/41/25
f 41/41/25 42/42/26 40/40/24
f 42/42/26 41/41/25 43/43/27
f 43/43/27 44/44/28 42/42/26
f 44/44/28 43/43/27 45/45/29
f 45/45/29 46/46/29 44/44/28
f 46/46/29 45/45/29 47/47/30
f 47/47/30 48/48/30 46/46/29
f 48/48/30 47/47/30 49/49/31
f 49/49/31 50/50/31 48/48/30
f 50/50/31 49/49/31 51/51/32
f 51/51/32 52/52/32 50/50/31
f 52/52/32 51/51/32 53/53/33
f 53/53/33 54/54/33 52/52/32
f 54/54/33 53/53/33 55/55/34
f 55/55/34 56/56/34 54/54/33
f 56/56/34 55/55/34 57/57/35
f 57/57/35 58/58/35 56/56/34
f 58/58/35 57/57/35 59/59/36
f 59/59/36 60/60/36 58/58/35
f 60/60/36 59/59/36 61/61/37
f 61/61/37 62/62/37 60/60/36
f 62/62/37 61/61/37 63/63/38
f 63/63/38 64/64/38 62/62/37
f 64/64/38 63/63/38 65/65/39
f 65/65/39 66/66/39 64/64/38
f 66/66/39 65/65/39 67/67/40
f 67/67/40 68/68/40 66/66/39
f 68/68/40 67/67/40 69/69/41
f 69/69/41 70/70/41 68/68/40
f 70/70/41 69/69/41 71/71/42
f 71/71/42 72/72/42 70/70/41
f 72/72/42 71/71/42 73/73/43
f 73/73/43 74/74/43 72/72/42
f 74/74/43 73/73/43 75/75/44
f 75/75/44 76/76/44 74/74/43
f 76/76/44 75/75/44 77/77/45
f 77/77/45 78/78/45 76/76/44
f 78/78/45 77/77/45 79/79/46
f 79/79/46 80/80/46 78/78/45
f 80/80/46 79/79/46 81/81/47
f 81/81/47 82/82/47 80/80/46
f 82/82/47 81/81/47 83/83/48
f 83/83/48 84/84/48 82/82/47
f 84/84/48 83/83/48 85/85/49
f 85/85/49 86/86/50 84/84/48
f 86/86/50 85/85/49 87/87/51
f 87/87/51 88/88/51 86/86/50
f 88/88/51 87/87/51 89/89/52
f 89/89/52 90/90/52 88/88/51
f 90/90/52 89/89/52 91/91/53
f 91/91/53 92/92/53 90/90/52
f 92/92/53 91/91/53 93/93/54
f 93/93/54 94/94/55 92/92/53
f 94/94/55 93/93/54 95/95/56
f 95/95/56 96/96/57 94/94/55
f 96/96/57 95/95/56 97/97/58
f 97/97/58 98/98/59 96/96/57
f 98/98/59 97/97/58 99/99/60
f 99/99/60 100/100/61 98/98/59
f 100/100/61 99/99/60 101/101/62
f 101/101/62 102/102/63 100/100/61
f 102/102/63 101/101/62 103/103/64
f 103/103/64 104/104/65 102/102/63
f 104/104/65 103/103/64 105/105/66
f 105/105/66 106/106/67 104/104/65
f 106/106/67 105/105/66 107/107/68
f 107/107/68 108/108/68 106/106/67
f 108/108/68 107/107/68 109/109/69
f 109/109/69 110/110/69 108/108/68
